<?xml version="1.0" encoding="utf-8"?>
<!-- Generator: Adobe Illustrator 24.3.0, SVG Export Plug-In . SVG Version: 6.00 Build 0)  -->
<svg version="1.1"
	 id="svg8" inkscape:version="1.0 (4035a4fb49, 2020-05-01)" sodipodi:docname="Fiverr Logo 09.2020.svg" xmlns:cc="http://creativecommons.org/ns#" xmlns:dc="http://purl.org/dc/elements/1.1/" xmlns:inkscape="http://www.inkscape.org/namespaces/inkscape" xmlns:rdf="http://www.w3.org/1999/02/22-rdf-syntax-ns#" xmlns:sodipodi="http://sodipodi.sourceforge.net/DTD/sodipodi-0.dtd" xmlns:svg="http://www.w3.org/2000/svg"
	 xmlns="http://www.w3.org/2000/svg" xmlns:xlink="http://www.w3.org/1999/xlink" x="0px" y="0px" viewBox="0 0 400 121.3"
	 style="enable-background:new 0 0 400 121.3;" xml:space="preserve">
<style type="text/css">
	.st0{fill:#FFFFFF;}
	.st1{fill:#1DBF73;}
</style>
<sodipodi:namedview  bordercolor="#666666" borderopacity="1" fit-margin-bottom="0" fit-margin-left="0" fit-margin-right="0" fit-margin-top="0" gridtolerance="10" guidetolerance="10" id="namedview10" inkscape:current-layer="svg8" inkscape:cx="202.2744" inkscape:cy="127.26549" inkscape:pageopacity="0" inkscape:pageshadow="2" inkscape:window-height="837" inkscape:window-maximized="1" inkscape:window-width="1600" inkscape:window-x="-8" inkscape:window-y="-8" inkscape:zoom="1.2935393" objecttolerance="10" pagecolor="#ffffff" showgrid="false">
	</sodipodi:namedview>
<path id="path2" class="st0" d="M366.7,58.9h-13.9c-9,0-13.9,6.7-13.9,18.4v41.8h-27V58.9h-11.2c-9,0-13.9,6.7-13.9,18.4v41.8h-27
	V36.4h27V49c4.5-9.9,10.3-12.6,19.3-12.6h32.8V49c4.5-9.9,10.3-12.6,19.3-12.6h9L366.7,58.9z M253.5,84h-55.7
	c1.3,9.4,7.2,14.4,16.6,14.4c7.2,0,12.1-3.1,13.9-8.1l23.8,6.7c-5.8,14.4-20.2,22.9-37.8,22.9c-29.2,0-42.7-22.9-42.7-42.7
	c0-19.3,11.7-42.2,40.9-42.2c31,0,41.3,23.4,41.3,40.9C253.9,80,253.9,82.2,253.5,84z M227.9,68.3c-0.4-7.2-5.8-13.5-14.8-13.5
	c-8.5,0-13.5,3.6-15.3,13.5H227.9z M124.9,119.1h23.4L178,36.9h-27l-14.4,48.1l-14.4-48.5h-27L124.9,119.1z M15.3,119.1h26.5V58.9
	h25.6v60.2h26.5V36.4H41.8v-4.9c0-5.4,4-9,9.9-9h15.7V0H47.6C28.3,0,15.3,12.1,15.3,29.7v6.7H0v22.5h15.3L15.3,119.1z"/>
<path id="path5" class="st1" d="M383.4,121.3c9,0,16.6-7.6,16.6-16.6s-7.6-16.6-16.6-16.6s-16.6,7.6-16.6,16.6
	S374.4,121.3,383.4,121.3z"/>
</svg>
