<?xml version="1.0" encoding="utf-8"?>
<!-- Generator: Adobe Illustrator 24.3.0, SVG Export Plug-In . SVG Version: 6.00 Build 0)  -->
<svg version="1.1" id="Layer_1" xmlns="http://www.w3.org/2000/svg" xmlns:xlink="http://www.w3.org/1999/xlink" x="0px" y="0px"
	 viewBox="0 0 4000 3000" style="enable-background:new 0 0 4000 3000;" xml:space="preserve">
<style type="text/css">
	.st0{fill:url(#SVGID_1_);}
	.st1{fill:url(#SVGID_2_);}
	.st2{fill:url(#SVGID_3_);}
</style>
<linearGradient id="SVGID_1_" gradientUnits="userSpaceOnUse" x1="4403.0381" y1="4883.689" x2="4403.0381" y2="796.5327" gradientTransform="matrix(0 1 -1 0 4855.5303 -1907.3287)">
	<stop  offset="0" style="stop-color:#A2278F"/>
	<stop  offset="1" style="stop-color:#00B5EA"/>
</linearGradient>
<path class="st0" d="M-28.2,2687c127.6-257.6,335.1-525,682.5-562.6c357.9-38.8,595,195.3,920.4,143.9
	c439-69.3,339.4-547.6,708-634.6c246.2-58.1,730.7,51.4,1776.2,785.1V3371H-28.2c0-66.7,0-133.3,0-200c0-61.1,0-122.1,0-183.2
	C-28.2,2887.6-28.2,2787.3-28.2,2687z"/>
<linearGradient id="SVGID_2_" gradientUnits="userSpaceOnUse" x1="6393.6821" y1="3948.155" x2="3758.4534" y2="1312.9264" gradientTransform="matrix(0 1 -1 0 4855.5303 -1907.3287)">
	<stop  offset="0" style="stop-color:#AC3895"/>
	<stop  offset="1" style="stop-color:#00B5EA"/>
</linearGradient>
<path class="st1" d="M4548.5,2857.1c-1344.3-857.7-1869.3-1020.7-2065.1-955.2c-188.7,63.2-4.9,316.4-354,516.8
	c-282.6,162.2-729.8,183.9-849.6,189.7c-393.3,19.1-448.5-67.4-731.6-26.2c-369.3,53.8-731.8,230.7-814.2,457.9
	c-76.4,210.8,115.4,389.7,153.4,425.2c707.7,660.2,4150.8,681.4,4720.2-13.1C4704.2,3334.5,4757.1,3148.4,4548.5,2857.1z"/>
<linearGradient id="SVGID_3_" gradientUnits="userSpaceOnUse" x1="6664.6069" y1="3462.2126" x2="3941.8538" y2="1890.2303" gradientTransform="matrix(0 1 -1 0 4855.5303 -1907.3287)">
	<stop  offset="0" style="stop-color:#EA4297"/>
	<stop  offset="1" style="stop-color:#00B5EA"/>
</linearGradient>
<path class="st2" d="M393.6,2864.1c-242.1,42.4-719.6,408.2-895.3,617.2c-181.5,215.9-58.3,75.4,117.6,226.2
	c914.4,783.5,4851.5,484.8,5050.6-26.2c11.6-29.7-379.3-33.2-271.4-359.8c153.4-464.5-1119.4-1215.2-1522.3-1138.3
	c-239,45.6-118.2,302.9-493.5,483.6C1952,2872.5,1415.8,2684.9,393.6,2864.1z"/>
</svg>
